<svg height="512" viewBox="0 0 128 128" width="512" 
    xmlns="http://www.w3.org/2000/svg">
    <g>
        <path d="m125.713 56.792-30.624-53.041a4 4 0 0 0 -5.464-1.464l-53.042 30.623a4 4 0 0 0 -1.464 5.464l10.756 18.626h21.125a4 4 0 0 1 4 4v31.974c.069-.035.141-.055.209-.094l53.041-30.624a4 4 0 0 0 1.463-5.464z" fill="#00c805"/>
        <rect fill="#fcf9f0" height="69.247" rx="4" width="69.247" x="1.751" y="57.003"/>
        <g fill="#00c805">
            <path d="m25.689 74.994a5.947 5.947 0 1 1 -5.947-5.947 5.948 5.948 0 0 1 5.947 5.947z"/>
            <circle cx="53.01" cy="74.994" r="5.947"/>
            <circle cx="36.376" cy="91.628" r="5.947"/>
            <path d="m58.957 108.263a5.947 5.947 0 1 1 -5.947-5.947 5.946 5.946 0 0 1 5.947 5.947z"/>
            <path d="m25.689 108.263a5.947 5.947 0 1 1 -5.947-5.947 5.947 5.947 0 0 1 5.947 5.947z"/>
        </g>
        <path d="m62.846 38.522a5.947 5.947 0 1 1 -8.124-2.177 5.947 5.947 0 0 1 8.124 2.177z" fill="#fcf9f0"/>
        <path d="m85.568 44.61a5.947 5.947 0 1 1 -8.123-2.176 5.947 5.947 0 0 1 8.123 2.176z" fill="#fcf9f0"/>
        <path d="m108.291 50.7a5.947 5.947 0 1 1 -8.123-2.177 5.948 5.948 0 0 1 8.123 2.177z" fill="#fcf9f0"/>
    </g>
</svg>